Coordinates
version=1
nRows=9
nColumns=36
inDegrees=yes

Units are S.I. units (second, meters, Newtons, ...)
If the header above contains a line with 'inDegrees', this indicates whether rotational values are in degrees (yes) or radians (no).

endheader
time	pelvis_tilt	pelvis_list	pelvis_rotation	pelvis_tx	pelvis_ty	pelvis_tz	hip_flexion_r	hip_adduction_r	hip_rotation_r	knee_angle_r	knee_angle_r_beta	ankle_angle_r	subtalar_angle_r	mtp_angle_r	hip_flexion_l	hip_adduction_l	hip_rotation_l	knee_angle_l	knee_angle_l_beta	ankle_angle_l	subtalar_angle_l	mtp_angle_l	lumbar_extension	lumbar_bending	lumbar_rotation	arm_flex_r	arm_add_r	arm_rot_r	elbow_flex_r	pro_sup_r	arm_flex_l	arm_add_l	arm_rot_l	elbow_flex_l	pro_sup_l
      5.73333330	    -16.88998101	     -3.00945112	     22.48605695	      0.81325513	      0.81294156	      0.14482187	     77.92962738	    -13.90949231	     13.28585458	     36.94018140	      0.64472779	     -3.32495705	      7.55094675	     -7.49999987	     61.50787663	     10.15526382	     -1.74539539	     73.51479708	      1.28307526	     26.53310659	      1.79889208	     -7.49999987	    -36.57859954	     -7.77789331	     -5.26379568	     56.14633486	     -6.92009332	     55.89131714	    128.54210520	     73.62159743	     82.46061714	     -5.11414879	     84.24276642	    120.76259242	     68.07098368
      5.75000000	    -16.53207008	     -2.80607149	     22.42765042	      0.81357023	      0.81226023	      0.14623100	     77.63465988	    -13.88802543	     13.24045179	     36.87671030	      0.64362001	     -3.37332066	      7.20955511	     -7.49999987	     61.19051147	     10.14382237	     -1.78419256	     73.75775323	      1.28731564	     26.82981848	      1.81024609	     -7.49999987	    -36.83112256	     -8.02060178	     -5.44311075	     55.16559551	     -6.60542028	     55.93236700	    128.70742539	     73.38321250	     81.97724362	     -5.22428473	     85.34080139	    121.39094779	     68.02259058
      5.76666670	    -16.08831898	     -2.55527463	     22.40745958	      0.81277621	      0.81007428	      0.14827378	     77.43363388	    -13.83396748	     13.20863428	     37.06131369	      0.64684195	     -3.34198333	      6.78139965	     -7.49999987	     60.99207340	     10.17543892	     -1.81937666	     74.20239382	      1.29507609	     27.22849255	      1.78498704	     -7.49999987	    -37.06900963	     -8.33787195	     -5.83131460	     54.78235219	     -6.16476441	     55.46399830	    129.02244217	     73.34093847	     82.02430357	     -5.38391337	     86.18148046	    122.02827615	     68.01805774
      5.78333330	    -15.58089446	     -2.30496789	     22.47016658	      0.81174739	      0.80785295	      0.15000745	     77.26186293	    -13.79205962	     13.17620959	     37.41207817	      0.65296394	     -3.24453704	      6.32637145	     -7.49999987	     60.84322568	     10.27866587	     -1.79251970	     74.80315978	      1.30556143	     27.69218742	      1.64373457	     -7.49999987	    -37.34833338	     -8.59009546	     -6.32062867	     54.87706946	     -5.74456573	     54.59913884	    129.39271336	     73.24916923	     82.48366111	     -5.53769570	     86.51614437	    122.46956899	     67.86596245
      5.80000000	    -15.23057292	     -2.21735477	     22.49322932	      0.81113967	      0.80646194	      0.14958764	     77.13350393	    -13.73770477	     13.01423247	     37.60057752	      0.65625388	     -3.13502162	      6.02278131	     -7.49999987	     60.80023265	     10.41980941	     -1.60210332	     75.37461864	      1.31553527	     28.09196326	      1.32387881	     -7.49999987	    -37.38659304	     -8.63417728	     -6.73186820	     55.08389969	     -5.59416285	     54.10135123	    129.50084574	     73.02300941	     82.66237751	     -5.54976882	     86.33318332	    122.39483023	     67.68424563
      5.81666670	    -14.94419453	     -2.15039460	     22.38649519	      0.81159801	      0.80714236	      0.14773154	     76.70320059	    -13.62575987	     12.90207280	     37.33243009	      0.65157382	     -3.08150720	      5.78112412	     -7.49999987	     60.47348293	     10.63025657	     -1.25290568	     75.52742114	      1.31820217	     28.29635111	      0.94967273	     -7.49999987	    -37.32643443	     -8.60156519	     -6.95266116	     54.88360570	     -5.49894314	     53.78908163	    129.28477577	     72.62244939	     82.62968115	     -5.45729647	     86.23738606	    122.15315717	     67.42036324
      5.83333330	    -14.52478143	     -1.94011442	     22.13005057	      0.81391812	      0.81038664	      0.14696070	     75.80321322	    -13.38706878	     12.96548931	     36.73535807	      0.64115295	     -3.34608542	      5.27393751	     -7.49999987	     59.65352932	     10.83126436	     -0.94363997	     75.27091646	      1.31372532	     27.88870421	      0.24136319	     -7.49999987	    -37.61373823	     -8.64340216	     -7.16772198	     54.01040731	     -5.10796187	     53.25451116	    129.28007919	     72.58197854	     82.82825532	     -5.67587373	     86.62615423	    122.79639248	     67.32824058
      5.85000000	    -14.21067223	     -1.84168444	     21.92590909	      0.81771078	      0.81460717	      0.14695071	     74.82086818	    -13.23000362	     12.82673379	     35.93894098	      0.62725285	     -3.49508355	      5.23268465	     -7.49999987	     58.78069113	     11.04549287	     -0.48398207	     74.78583495	      1.30525905	     27.73813578	     -0.19222171	     -7.49999987	    -37.53188500	     -8.70075840	     -7.24566255	     53.17954826	     -4.84663730	     53.21134121	    128.55425844	     72.51039999	     82.40454609	     -5.68482827	     86.93521301	    122.77200655	     67.24938674
      5.86666670	    -13.42089127	     -1.53406488	     21.77895075	      0.82025301	      0.81991437	      0.14619723	     73.27952711	    -13.16627311	     12.61767558	     35.11090487	      0.61280089	     -3.54655876	      5.36906927	     -7.49999987	     57.29828148	     11.29164348	     -0.07180565	     74.15619249	      1.29426972	     27.22617175	     -0.96065364	     -7.49999987	    -38.17389964	     -8.60179118	     -7.55222827	     52.64192210	     -4.33763788	     52.59591480	    127.99571177	     73.07006469	     82.39084647	     -6.15945954	     87.02662645	    123.36716436	     67.27195110
